<?xml version="1.0" encoding="UTF-8"?>
<svg id="Layer_2" data-name="Layer 2" xmlns="http://www.w3.org/2000/svg" viewBox="0 0 463.23 596">
  <defs>
    <style>
      .cls-1 {
        letter-spacing: -.03em;
      }

      .cls-2 {
        letter-spacing: -.02em;
      }

      .cls-3 {
        letter-spacing: -.04em;
      }

      .cls-4 {
        letter-spacing: -.02em;
      }

      .cls-5 {
        fill: none;
      }

      .cls-6 {
        font-family: SourceSerifPro-Semibold, 'Source Serif Pro';
        font-size: 100px;
        font-weight: 600;
      }

      .cls-7 {
        letter-spacing: -.01em;
      }
    </style>
  </defs>
  <g id="Layer_1-2" data-name="Layer 1">
    <text class="cls-6" transform="translate(0 563.1) scale(.94 1)"><tspan class="cls-7" x="0" y="0">Co</tspan><tspan class="cls-1" x="115.6" y="0">m</tspan><tspan class="cls-2" x="203.1" y="0">p</tspan><tspan class="cls-4" x="260.9" y="0">a</tspan><tspan class="cls-3" x="311.2" y="0">n</tspan><tspan class="cls-7" x="367.9" y="0">y 3</tspan></text>
    <g>
      <path class="cls-5" d="M170.47,381.98c-12.28-15.63-18.89-33.95-19.81-54.97-1.18-26.74,6.49-48.94,22.99-66.57,16.51-17.63,41.5-29.16,74.98-34.59-28.49-5.85-50.91-16.99-67.23-33.44-16.31-16.43-24.95-35.35-25.9-56.76-1.18-26.74,7.96-48.99,27.41-66.73,6.07-5.54,12.88-10.27,20.42-14.2-16.73,3.76-32.24,9.71-46.52,17.89-26,14.9-46.25,35.98-60.77,63.22-14.53,27.26-21.63,59.81-21.32,97.67,.31,38.25,7.94,70.89,22.91,97.95,14.96,27.06,35.23,47.67,60.84,61.84,13.92,7.71,28.92,13.27,44.98,16.72-13.05-7.36-24.04-16.69-32.95-28.03Z"/>
      <path d="M348.35,322.32l-10.8,71.21c-14.26,7.37-29.07,12.63-44.41,15.79-2.77,.57-5.55,1.07-8.34,1.55-.97,.03-1.9,.05-2.74,.07-31.79,.46-49.03-6.05-67.64-21.64-18.6-15.59-28.49-36.76-29.67-63.51-1.25-28.27,6.95-50.29,24.59-66.06,17.64-15.76,45.19-24.32,82.64-25.68l28.41-1.03-.83-18.92-25.25,.92c-29.88,1.09-54.61-5.28-74.19-19.12-19.58-13.83-29.96-34.12-31.14-60.87-1.01-22.93,5.45-41.34,19.38-55.25,13.93-13.9,34.65-25.26,61.58-26.24,5.05-.18,11.01,.12,17.31,.76,14.86,3.42,29.08,8.85,42.64,16.32l11.94,69.91,24.64-.16-3.18-80.87c-19.89-10.57-39.43-18-58.62-22.27-19.21-4.26-39.96-6.33-62.28-6.18-40.43,.27-76.27,9.11-107.51,26.53-31.24,17.42-55.69,41.3-73.34,71.62-17.66,30.33-26.32,65.2-26.01,104.58,.32,39.39,9.34,74.23,27.07,104.51,17.72,30.29,42.23,53.84,73.54,70.64,31.3,16.81,67.8,25.08,109.5,24.8,22.32-.15,43.67-2.5,64.07-7.02,20.39-4.53,40.86-12.22,61.41-23.07l1.87-81.47-24.64,.16Zm-189.91,70.97c-25.6-14.17-45.88-34.78-60.84-61.84-14.97-27.05-22.6-59.7-22.91-97.95-.31-37.86,6.79-70.41,21.32-97.67,14.52-27.25,34.77-48.32,60.77-63.22,14.28-8.18,29.79-14.14,46.52-17.89-7.54,3.93-14.34,8.66-20.42,14.2-19.45,17.74-28.58,39.99-27.41,66.73,.94,21.4,9.58,40.32,25.9,56.76,16.32,16.44,38.74,27.58,67.23,33.44-33.48,5.43-58.47,16.96-74.98,34.59-16.5,17.64-24.17,39.83-22.99,66.57,.93,21.02,7.54,39.34,19.81,54.97,8.91,11.33,19.9,20.67,32.95,28.03-16.06-3.45-31.06-9.01-44.98-16.72Z"/>
      <path d="M265.58,97.37c-19.04,0-34.48,14.02-34.48,31.31s15.44,31.31,34.48,31.31,34.48-14.02,34.48-31.31c0-3.21-.54-6.32-1.53-9.24-2.71,2.3-6.21,3.88-10.17,4.34-10.04,1.16-19.21-5.3-20.49-14.42-.59-4.26,.66-8.34,3.17-11.6-1.78-.26-3.61-.4-5.47-.4Z"/>
    </g>
    <polygon points="444.14 0 362.6 0 362.6 19.08 444.14 19.08 444.14 100.63 463.23 100.63 463.23 19.08 463.23 0 444.14 0"/>
    <polygon points="19.08 460.32 100.63 460.32 100.63 441.24 19.08 441.24 19.08 359.7 0 359.7 0 441.24 0 460.32 19.08 460.32"/>
  </g>
</svg>