<svg width="630.4" height="95.7" viewBox="0 0 630.4 95.7" xmlns="http://www.w3.org/2000/svg"><g id="svgGroup" stroke-linecap="round" fill-rule="nonzero" font-size="9pt" stroke="#0A3D62" stroke-width="3" fill="#0A3D62" style="stroke:#0A3D62;stroke-width:3;fill:#0A3D62"><path d="M 409.4 19.2 A 24.358 24.358 0 0 0 407.37 15.031 A 28.922 28.922 0 0 0 403.2 9.75 Q 398.9 5.4 392.65 2.7 A 31.594 31.594 0 0 0 386.373 0.751 A 39.614 39.614 0 0 0 378.5 0 Q 370.5 0 363.8 2.85 Q 357.1 5.7 352.1 10.85 A 35.012 35.012 0 0 0 351.636 11.337 A 36.263 36.263 0 0 0 344.35 23.05 A 38.665 38.665 0 0 0 342.841 27.812 A 43.908 43.908 0 0 0 341.6 38.4 Q 341.6 46.8 344.4 53.8 Q 347.2 60.8 352.25 65.95 Q 357.3 71.1 364.05 74 Q 370.8 76.9 378.7 76.9 Q 385.5 76.9 391.7 74.6 Q 397.9 72.3 402.7 67.8 Q 407.5 63.3 410.3 56.85 Q 413.1 50.4 413.1 42.2 L 413.1 35.2 L 378.5 35.2 L 378.5 45.2 L 406.7 45.2 L 401.4 40.4 L 401.4 45.5 A 23.25 23.25 0 0 1 401.3 47.679 A 18.491 18.491 0 0 1 398.3 56.35 Q 395.2 61 390.05 63.55 A 23.872 23.872 0 0 1 386.729 64.895 A 26.189 26.189 0 0 1 378.7 66.1 A 29.766 29.766 0 0 1 375.874 65.969 A 23.955 23.955 0 0 1 365.6 62.65 A 23.505 23.505 0 0 1 362.588 60.488 A 24.595 24.595 0 0 1 356.65 52.95 A 27.817 27.817 0 0 1 354.114 45.731 A 36.026 36.026 0 0 1 353.4 38.4 A 38.059 38.059 0 0 1 353.862 32.354 A 28.545 28.545 0 0 1 356.55 23.9 Q 359.7 17.7 365.4 14.2 A 22.912 22.912 0 0 1 370.915 11.747 A 26.62 26.62 0 0 1 378.5 10.7 A 26.763 26.763 0 0 1 382.437 10.981 A 20.259 20.259 0 0 1 391.3 14.45 Q 396.6 18.2 398.9 24.3 L 409.4 19.2 Z M 498.7 44.2 L 517.5 41.1 L 517.5 50 L 500.9 52.9 Q 498.053 53.407 496.166 54.413 A 8.125 8.125 0 0 0 494.3 55.75 A 6.884 6.884 0 0 0 492.22 60.386 A 9.265 9.265 0 0 0 492.2 61 A 6.631 6.631 0 0 0 492.734 63.694 A 6.386 6.386 0 0 0 494.55 66.05 A 8.261 8.261 0 0 0 498.216 67.77 A 11.745 11.745 0 0 0 500.6 68 A 17.884 17.884 0 0 0 504.85 67.516 A 14.285 14.285 0 0 0 508.65 66 Q 512.1 64 514 60.65 A 14.721 14.721 0 0 0 515.893 53.71 A 17.399 17.399 0 0 0 515.9 53.2 L 515.9 39.3 A 8.819 8.819 0 0 0 515.23 35.817 A 8.352 8.352 0 0 0 512.95 32.75 A 10.103 10.103 0 0 0 508.631 30.59 Q 507.014 30.2 505.1 30.2 A 14.517 14.517 0 0 0 500.674 30.854 A 12.563 12.563 0 0 0 497.25 32.55 Q 493.9 34.9 492.3 38.6 L 482.9 33.9 A 17.616 17.616 0 0 1 487.28 27.333 A 20.707 20.707 0 0 1 487.8 26.85 A 24.569 24.569 0 0 1 495.186 22.318 A 27.981 27.981 0 0 1 495.75 22.1 Q 500.3 20.4 505.4 20.4 Q 511.8 20.4 516.75 22.8 A 19.722 19.722 0 0 1 521.853 26.303 A 17.614 17.614 0 0 1 524.45 29.45 A 17.158 17.158 0 0 1 527.103 37.248 A 21.377 21.377 0 0 1 527.2 39.3 L 527.2 75.7 L 516.4 75.7 L 516.4 65.9 L 518.7 66.2 Q 516.8 69.5 513.85 71.9 Q 510.9 74.3 507.15 75.6 A 23.422 23.422 0 0 1 501.996 76.733 A 29.554 29.554 0 0 1 498.8 76.9 A 26.315 26.315 0 0 1 493.94 76.472 A 19.813 19.813 0 0 1 489.15 74.95 Q 485 73 482.7 69.55 A 13.665 13.665 0 0 1 480.528 63.552 A 17.56 17.56 0 0 1 480.4 61.4 Q 480.4 57 482.35 53.5 Q 484.3 50 488.4 47.6 A 23.722 23.722 0 0 1 492.665 45.672 Q 494.703 44.97 497.079 44.493 A 43.311 43.311 0 0 1 498.7 44.2 Z M 301 44.2 L 319.8 41.1 L 319.8 50 L 303.2 52.9 Q 300.353 53.407 298.466 54.413 A 8.125 8.125 0 0 0 296.6 55.75 A 6.884 6.884 0 0 0 294.52 60.386 A 9.265 9.265 0 0 0 294.5 61 A 6.631 6.631 0 0 0 295.034 63.694 A 6.386 6.386 0 0 0 296.85 66.05 A 8.261 8.261 0 0 0 300.516 67.77 A 11.745 11.745 0 0 0 302.9 68 A 17.884 17.884 0 0 0 307.15 67.516 A 14.285 14.285 0 0 0 310.95 66 Q 314.4 64 316.3 60.65 A 14.721 14.721 0 0 0 318.193 53.71 A 17.399 17.399 0 0 0 318.2 53.2 L 318.2 39.3 A 8.819 8.819 0 0 0 317.53 35.817 A 8.352 8.352 0 0 0 315.25 32.75 A 10.103 10.103 0 0 0 310.931 30.59 Q 309.314 30.2 307.4 30.2 A 14.517 14.517 0 0 0 302.974 30.854 A 12.563 12.563 0 0 0 299.55 32.55 Q 296.2 34.9 294.6 38.6 L 285.2 33.9 A 17.616 17.616 0 0 1 289.58 27.333 A 20.707 20.707 0 0 1 290.1 26.85 A 24.569 24.569 0 0 1 297.486 22.318 A 27.981 27.981 0 0 1 298.05 22.1 Q 302.6 20.4 307.7 20.4 Q 314.1 20.4 319.05 22.8 A 19.722 19.722 0 0 1 324.153 26.303 A 17.614 17.614 0 0 1 326.75 29.45 A 17.158 17.158 0 0 1 329.403 37.248 A 21.377 21.377 0 0 1 329.5 39.3 L 329.5 75.7 L 318.7 75.7 L 318.7 65.9 L 321 66.2 Q 319.1 69.5 316.15 71.9 Q 313.2 74.3 309.45 75.6 A 23.422 23.422 0 0 1 304.296 76.733 A 29.554 29.554 0 0 1 301.1 76.9 A 26.315 26.315 0 0 1 296.24 76.472 A 19.813 19.813 0 0 1 291.45 74.95 Q 287.3 73 285 69.55 A 13.665 13.665 0 0 1 282.828 63.552 A 17.56 17.56 0 0 1 282.7 61.4 Q 282.7 57 284.65 53.5 Q 286.6 50 290.7 47.6 A 23.722 23.722 0 0 1 294.965 45.672 Q 297.003 44.97 299.379 44.493 A 43.311 43.311 0 0 1 301 44.2 Z M 83.1 44.2 L 101.9 41.1 L 101.9 50 L 85.3 52.9 Q 82.453 53.407 80.566 54.413 A 8.125 8.125 0 0 0 78.7 55.75 A 6.884 6.884 0 0 0 76.62 60.386 A 9.265 9.265 0 0 0 76.6 61 A 6.631 6.631 0 0 0 77.134 63.694 A 6.386 6.386 0 0 0 78.95 66.05 A 8.261 8.261 0 0 0 82.616 67.77 A 11.745 11.745 0 0 0 85 68 A 17.884 17.884 0 0 0 89.25 67.516 A 14.285 14.285 0 0 0 93.05 66 Q 96.5 64 98.4 60.65 A 14.721 14.721 0 0 0 100.293 53.71 A 17.399 17.399 0 0 0 100.3 53.2 L 100.3 39.3 A 8.819 8.819 0 0 0 99.63 35.817 A 8.352 8.352 0 0 0 97.35 32.75 A 10.103 10.103 0 0 0 93.031 30.59 Q 91.414 30.2 89.5 30.2 A 14.517 14.517 0 0 0 85.074 30.854 A 12.563 12.563 0 0 0 81.65 32.55 Q 78.3 34.9 76.7 38.6 L 67.3 33.9 A 17.616 17.616 0 0 1 71.68 27.333 A 20.707 20.707 0 0 1 72.2 26.85 A 24.569 24.569 0 0 1 79.586 22.318 A 27.981 27.981 0 0 1 80.15 22.1 Q 84.7 20.4 89.8 20.4 Q 96.2 20.4 101.15 22.8 A 19.722 19.722 0 0 1 106.253 26.303 A 17.614 17.614 0 0 1 108.85 29.45 A 17.158 17.158 0 0 1 111.503 37.248 A 21.377 21.377 0 0 1 111.6 39.3 L 111.6 75.7 L 100.8 75.7 L 100.8 65.9 L 103.1 66.2 Q 101.2 69.5 98.25 71.9 Q 95.3 74.3 91.55 75.6 A 23.422 23.422 0 0 1 86.396 76.733 A 29.554 29.554 0 0 1 83.2 76.9 A 26.315 26.315 0 0 1 78.34 76.472 A 19.813 19.813 0 0 1 73.55 74.95 Q 69.4 73 67.1 69.55 A 13.665 13.665 0 0 1 64.928 63.552 A 17.56 17.56 0 0 1 64.8 61.4 Q 64.8 57 66.75 53.5 Q 68.7 50 72.8 47.6 A 23.722 23.722 0 0 1 77.065 45.672 Q 79.103 44.97 81.479 44.493 A 43.311 43.311 0 0 1 83.1 44.2 Z M 136.1 75.7 L 124.8 75.7 L 124.8 21.6 L 135.6 21.6 L 135.6 32.2 L 134.3 30.8 Q 136.3 25.7 140.7 23.05 Q 145.1 20.4 150.9 20.4 A 23.556 23.556 0 0 1 156.715 21.092 A 19.362 19.362 0 0 1 161.5 23 Q 166.1 25.6 168.7 30.2 A 20.067 20.067 0 0 1 171.117 37.712 A 25.349 25.349 0 0 1 171.3 40.8 L 171.3 75.7 L 160.1 75.7 L 160.1 43.8 Q 160.1 39.7 158.6 36.85 Q 157.1 34 154.35 32.45 Q 151.6 30.9 148.1 30.9 A 13.522 13.522 0 0 0 144.4 31.391 A 11.626 11.626 0 0 0 141.85 32.45 Q 139.1 34 137.6 36.9 A 12.999 12.999 0 0 0 136.387 40.511 A 17.937 17.937 0 0 0 136.1 43.8 L 136.1 75.7 Z M 422.9 55 L 422.9 21.6 L 434.2 21.6 L 434.2 54 A 15.462 15.462 0 0 0 434.563 57.425 A 12.182 12.182 0 0 0 435.7 60.5 Q 437.2 63.3 439.9 64.85 A 11.698 11.698 0 0 0 444.503 66.315 A 14.641 14.641 0 0 0 446.1 66.4 A 13.682 13.682 0 0 0 449.463 66.004 A 11.032 11.032 0 0 0 452.4 64.8 Q 455.1 63.2 456.65 60.3 Q 458.2 57.4 458.2 53.5 L 458.2 21.6 L 469.4 21.6 L 469.4 75.7 L 458.7 75.7 L 458.7 65.1 L 459.9 66.5 Q 458 71.5 453.6 74.2 Q 449.2 76.9 443.3 76.9 Q 437.2 76.9 432.6 74.15 Q 428 71.4 425.45 66.45 A 22.742 22.742 0 0 1 423.201 59.286 A 29.473 29.473 0 0 1 422.9 55 Z M 620.9 30.2 L 619.2 32.8 L 619.2 0 L 630.4 0 L 630.4 75.7 L 619.7 75.7 L 619.7 64.7 L 621 66.8 Q 618.2 71.7 613 74.3 Q 607.8 76.9 601.6 76.9 A 27.724 27.724 0 0 1 592.706 75.508 A 24.979 24.979 0 0 1 587.65 73.15 Q 581.5 69.4 577.95 63 A 28.489 28.489 0 0 1 574.487 51.061 A 34.466 34.466 0 0 1 574.4 48.6 A 30.553 30.553 0 0 1 575.737 39.445 A 27.212 27.212 0 0 1 578 34.2 Q 581.6 27.8 587.7 24.1 A 25.702 25.702 0 0 1 599.952 20.439 A 31.077 31.077 0 0 1 601.5 20.4 Q 608 20.4 613 23 Q 618 25.6 620.9 30.2 Z M 602.7 66.4 Q 607.4 66.4 611.15 64.1 Q 614.9 61.8 617.05 57.75 Q 619.2 53.7 619.2 48.6 Q 619.2 43.5 617.05 39.5 Q 614.9 35.5 611.15 33.2 A 15.705 15.705 0 0 0 603.284 30.909 A 18.855 18.855 0 0 0 602.7 30.9 A 16.498 16.498 0 0 0 596.409 32.089 A 15.741 15.741 0 0 0 594.2 33.2 Q 590.4 35.5 588.3 39.5 A 18.352 18.352 0 0 0 586.34 46.044 A 22.878 22.878 0 0 0 586.2 48.6 A 21.26 21.26 0 0 0 586.864 54.006 A 18.036 18.036 0 0 0 588.3 57.75 Q 590.4 61.8 594.15 64.1 Q 597.9 66.4 602.7 66.4 Z M 11.3 95.7 L 0 95.7 L 0 21.6 L 10.8 21.6 L 10.8 32.8 L 9.5 30.2 Q 12.5 25.6 17.5 23 A 23.025 23.025 0 0 1 25.411 20.606 A 28.859 28.859 0 0 1 28.9 20.4 Q 36.6 20.4 42.75 24.1 Q 48.9 27.8 52.45 34.2 A 28.489 28.489 0 0 1 55.913 46.14 A 34.466 34.466 0 0 1 56 48.6 A 31.046 31.046 0 0 1 54.748 57.536 A 27.428 27.428 0 0 1 52.45 63 Q 48.9 69.4 42.8 73.15 A 25.471 25.471 0 0 1 30.942 76.834 A 31.115 31.115 0 0 1 28.9 76.9 A 26.442 26.442 0 0 1 21.474 75.885 A 23.463 23.463 0 0 1 17.45 74.3 Q 12.3 71.7 9.5 66.8 L 11.3 64.7 L 11.3 95.7 Z M 27.8 66.4 A 17.036 17.036 0 0 0 32.787 65.693 A 14.782 14.782 0 0 0 36.3 64.1 A 16.307 16.307 0 0 0 42.133 57.782 A 19.184 19.184 0 0 0 42.15 57.75 Q 44.3 53.7 44.3 48.6 Q 44.3 43.5 42.15 39.5 Q 40 35.5 36.3 33.2 A 15.316 15.316 0 0 0 29.418 30.968 A 18.931 18.931 0 0 0 27.8 30.9 Q 23.1 30.9 19.35 33.2 Q 15.6 35.5 13.45 39.5 Q 11.3 43.5 11.3 48.6 A 20.793 20.793 0 0 0 11.98 54.006 A 17.782 17.782 0 0 0 13.45 57.75 Q 15.6 61.8 19.35 64.1 A 15.705 15.705 0 0 0 27.216 66.391 A 18.855 18.855 0 0 0 27.8 66.4 Z M 260 75.7 L 248.7 75.7 L 248.7 21.6 L 259.5 21.6 L 259.5 32.5 L 258.5 30.9 A 16.858 16.858 0 0 1 260.232 27.226 A 12.037 12.037 0 0 1 264.3 23.25 Q 268.3 20.9 273.9 20.9 L 277.2 20.9 L 277.2 31.2 L 272.5 31.2 A 14.812 14.812 0 0 0 268.453 31.727 A 11.315 11.315 0 0 0 263.45 34.65 A 11.184 11.184 0 0 0 260.614 39.626 Q 260.115 41.393 260.022 43.506 A 22.487 22.487 0 0 0 260 44.5 L 260 75.7 Z M 551.7 75.7 L 540.4 75.7 L 540.4 21.6 L 551.2 21.6 L 551.2 32.5 L 550.2 30.9 A 16.858 16.858 0 0 1 551.932 27.226 A 12.037 12.037 0 0 1 556 23.25 Q 560 20.9 565.6 20.9 L 568.9 20.9 L 568.9 31.2 L 564.2 31.2 A 14.812 14.812 0 0 0 560.153 31.727 A 11.315 11.315 0 0 0 555.15 34.65 A 11.184 11.184 0 0 0 552.314 39.626 Q 551.815 41.393 551.722 43.506 A 22.487 22.487 0 0 0 551.7 44.5 L 551.7 75.7 Z M 209.5 76.9 Q 201.7 76.9 195.25 73.2 Q 188.8 69.5 185 63.1 A 27.299 27.299 0 0 1 181.267 50.722 A 33.164 33.164 0 0 1 181.2 48.6 A 30.117 30.117 0 0 1 182.369 40.073 A 25.893 25.893 0 0 1 185 34.05 Q 188.8 27.7 195.2 24.05 A 28.002 28.002 0 0 1 208.032 20.433 A 33.32 33.32 0 0 1 209.5 20.4 A 30.079 30.079 0 0 1 218.418 21.687 A 26.624 26.624 0 0 1 223.85 24.05 Q 230.2 27.7 233.95 34.05 A 27.079 27.079 0 0 1 237.545 45.346 A 33.582 33.582 0 0 1 237.7 48.6 A 30.172 30.172 0 0 1 236.464 57.368 A 26.25 26.25 0 0 1 233.9 63.2 Q 230.1 69.6 223.7 73.25 A 28.05 28.05 0 0 1 209.986 76.897 A 33.061 33.061 0 0 1 209.5 76.9 Z M 209.5 66.4 A 17.036 17.036 0 0 0 214.487 65.693 A 14.782 14.782 0 0 0 218 64.1 A 16.307 16.307 0 0 0 223.833 57.782 A 19.184 19.184 0 0 0 223.85 57.75 Q 226 53.7 226 48.6 Q 226 43.5 223.85 39.5 Q 221.7 35.5 218 33.2 A 15.316 15.316 0 0 0 211.118 30.968 A 18.931 18.931 0 0 0 209.5 30.9 Q 204.8 30.9 201.05 33.2 Q 197.3 35.5 195.15 39.5 Q 193 43.5 193 48.6 A 20.793 20.793 0 0 0 193.68 54.006 A 17.782 17.782 0 0 0 195.15 57.75 Q 197.3 61.8 201.05 64.1 A 15.705 15.705 0 0 0 208.916 66.391 A 18.855 18.855 0 0 0 209.5 66.4 Z"/></g></svg>