<svg width="37" height="37" viewBox="0 0 37 37" fill="none" xmlns="http://www.w3.org/2000/svg">
<path d="M30.8334 32.375C30.8334 30.2235 30.8334 29.1478 30.5679 28.2724C29.97 26.3015 28.4277 24.7592 26.4568 24.1614C25.5815 23.8958 24.5057 23.8958 22.3542 23.8958H14.6459C12.4944 23.8958 11.4187 23.8958 10.5433 24.1614C8.57245 24.7592 7.03014 26.3015 6.43228 28.2724C6.16675 29.1478 6.16675 30.2235 6.16675 32.375M25.4376 11.5625C25.4376 15.394 22.3316 18.5 18.5001 18.5C14.6686 18.5 11.5626 15.394 11.5626 11.5625C11.5626 7.73102 14.6686 4.625 18.5001 4.625C22.3316 4.625 25.4376 7.73102 25.4376 11.5625Z" stroke="black" stroke-width="2" stroke-linecap="round" stroke-linejoin="round"/>
</svg>
